<svg id="Layer_3" data-name="Layer 3" xmlns="http://www.w3.org/2000/svg" viewBox="0 0 188.61 152"><defs><style>.cls-1,.cls-2{fill:none;}.cls-2{stroke:#cb98ed;stroke-miterlimit:10;stroke-width:3px;}</style></defs><title>cat_username</title><path class="cls-1" d="M12.34,51c5.34-15.05,1.52-29.87-2.88-40.49l168.17.92c5.93,24.48,4.48,43.26,1.92,56.13-2.92,14.69-8,25.11-7.69,43.25a98.76,98.76,0,0,0,5.77,31.28L9.46,143c-8.6-52.12-5.61-75,0-85.57A44.64,44.64,0,0,0,12.34,51Z" transform="translate(0.8 -2.5)"/><path class="cls-2" d="M28.89,67.94c.43-2.68,4.42-24.71,25.84-37.15a66.34,66.34,0,0,1,16.73-6.63c8.73-2.32,15.55-2.49,24.32-2.65,12.9-.24,20-.38,28.89,2.65a55,55,0,0,1,16.72,9.29,49.5,49.5,0,0,1,13.68,15.92c1.7,3.26,3.43,7.68,4.56,21.23,1.11,13.22,1.81,21.55,0,33.17-2,13.18-3.36,21.61-10.64,30.52a52,52,0,0,1-22.8,15.92c-8.71,3.08-16.45,2.93-31.93,2.65-9.66-.17-16.07-.33-24.33-2.65-4.27-1.2-12.26-3.54-19.76-9.29C39.88,133,36.52,123.3,33.45,114.38c-3.58-10.36-4-19-4.56-30.51C28.49,75.75,28.28,71.69,28.89,67.94Z" transform="translate(0.8 -2.5)"/><path class="cls-2" d="M28.89,74.58A181.51,181.51,0,0,1,13.68,33.45C10,17.58,10.94,11.11,15.2,8.24,16.33,7.48,19,6.08,25.85,6.91c17.7,2.16,30,15.28,35,21.23" transform="translate(0.8 -2.5)"/><path class="cls-2" d="M159.63,77.23a180.77,180.77,0,0,0,19-46.44c3.47-14,3.46-21.86-1.52-25.21-1.14-.76-3.83-2.16-10.64-1.32-17.71,2.16-30,15.28-35,21.23" transform="translate(0.8 -2.5)"/><path class="cls-2" d="M123.15,78.56c-4.31,2.08-5.3,7.93-3,11.94,1.9,3.39,6.66,6.41,10.64,5.31,4.74-1.31,6-7.8,4.56-11.94a8.38,8.38,0,0,0-4.56-5.31A9.44,9.44,0,0,0,123.15,78.56Z" transform="translate(0.8 -2.5)"/><path class="cls-2" d="M60.81,78.56c-4.3,2.08-5.3,7.93-3,11.94,1.91,3.39,6.66,6.41,10.64,5.31,4.75-1.31,6-7.8,4.57-11.94a8.37,8.37,0,0,0-4.57-5.31A9.44,9.44,0,0,0,60.81,78.56Z" transform="translate(0.8 -2.5)"/><path class="cls-2" d="M88.18,95.81c-.05,7.62,6.29,12.41,10.64,11.94,4-.43,8.25-5.42,7.6-11.94" transform="translate(0.8 -2.5)"/><path class="cls-2" d="M150.51,86.52a65.22,65.22,0,0,1,25.85,4A58.43,58.43,0,0,1,187,95.81" transform="translate(0.8 -2.5)"/><path class="cls-2" d="M146,105.1a65.06,65.06,0,0,1,25.85,4,58.45,58.45,0,0,1,10.64,5.3" transform="translate(0.8 -2.5)"/><path class="cls-2" d="M44.09,105.1a65.06,65.06,0,0,0-25.85,4,58.45,58.45,0,0,0-10.64,5.3" transform="translate(0.8 -2.5)"/><path class="cls-2" d="M36.49,86.52a65.22,65.22,0,0,0-25.85,4A58.43,58.43,0,0,0,0,95.81" transform="translate(0.8 -2.5)"/></svg>